<?xml version="1.0" standalone="no"?>
<!DOCTYPE svg PUBLIC "-//W3C//DTD SVG 20010904//EN"
 "http://www.w3.org/TR/2001/REC-SVG-20010904/DTD/svg10.dtd">
<svg version="1.0" xmlns="http://www.w3.org/2000/svg"
 width="831.000000pt" height="831.000000pt" viewBox="0 0 831.000000 831.000000"
 preserveAspectRatio="xMidYMid meet">

<g transform="translate(0.000000,831.000000) scale(0.100000,-0.100000)"
fill="#000000" stroke="none">
<path d="M3262 6864 l3 -769 890 -2 c490 -2 896 1 903 5 10 7 12 167 10 770
l-3 761 -447 -344 c-246 -190 -450 -345 -453 -345 -5 0 -785 597 -893 683 -10
8 -12 -143 -10 -759z m468 160 c135 -103 287 -221 339 -261 l94 -73 36 27 c39
30 638 489 659 506 9 7 12 -86 12 -462 l0 -471 -705 0 -705 0 0 471 c0 376 3
469 13 462 6 -6 122 -95 257 -199z"/>
<path d="M2451 5783 c-342 -343 -578 -777 -670 -1238 -37 -184 -46 -278 -46
-490 0 -212 9 -306 46 -490 79 -393 264 -771 533 -1091 164 -195 429 -417 620
-518 l48 -25 1187 -1 1186 0 85 52 c445 272 789 681 986 1171 120 298 169 567
168 917 -1 183 -5 249 -23 355 -90 536 -317 981 -692 1358 l-107 107 -163 0
c-89 0 -160 -2 -158 -4 2 -2 49 -39 104 -84 477 -383 776 -933 834 -1536 79
-808 -302 -1610 -979 -2066 l-90 -60 -1155 0 -1155 0 -90 60 c-552 371 -915
980 -979 1644 -57 581 130 1188 504 1635 84 101 273 283 363 350 39 30 72 55
72 57 0 2 -72 4 -160 4 l-161 0 -108 -107z"/>
<path d="M3565 5878 c-2 -7 -26 -164 -54 -348 -28 -184 -103 -675 -166 -1090
-64 -415 -150 -978 -191 -1250 -42 -272 -88 -574 -103 -670 l-27 -175 574 -3
c315 -1 829 -1 1141 0 l567 3 -34 220 c-18 121 -140 918 -270 1770 l-237 1550
-598 3 c-473 2 -598 0 -602 -10z m1269 -1750 c132 -860 241 -1569 244 -1576 3
-9 -183 -12 -911 -12 l-914 0 4 23 c4 21 116 754 370 2420 l108 707 430 0 431
0 238 -1562z"/>
<path d="M2742 1192 l-523 -537 976 -3 c537 -1 1413 -1 1947 0 l970 3 -523
538 -524 537 -900 0 -900 0 -523 -538z m2559 17 c173 -177 320 -330 327 -340
13 -18 -28 -19 -1463 -19 l-1477 0 27 31 c14 18 162 171 327 340 l302 309 821
0 822 0 314 -321z"/>
</g>
</svg>
